<svg width="12" height="58" viewBox="0 0 12 58" fill="none" xmlns="http://www.w3.org/2000/svg">
<g id="icon 01">
<path id="Union" fill-rule="evenodd" clip-rule="evenodd" d="M6 1C3.23858 1 1 3.23858 1 6C1 8.76142 3.23858 11 6 11C8.76142 11 11 8.76142 11 6C11 3.23858 8.76142 1 6 1ZM0 6C0 2.68629 2.68629 0 6 0C9.31371 0 12 2.68629 12 6C12 9.14533 9.57977 11.7254 6.5 11.9795V56.5H10.5V57.5H1.5V56.5H5.5V11.9795C2.42023 11.7254 0 9.14533 0 6Z" fill="url(#paint0_linear_21_224)"/>
</g>
<defs>
<linearGradient id="paint0_linear_21_224" x1="6" y1="0" x2="6" y2="57.5" gradientUnits="userSpaceOnUse">
<stop stop-color="#ECC47F"/>
<stop offset="1" stop-color="#5C3D06"/>
</linearGradient>
</defs>
</svg>
